<svg xmlns="http://www.w3.org/2000/svg" width="52" height="52" viewBox="0 0 52 52">
  <path id="Path_10900" data-name="Path 10900" d="M-78.508,61.756l2.344-3.076L-78.508,55.6l1.465-3.662L-80.119,49.6l.439-3.955-3.662-1.465-.439-3.955-3.955-.439L-89.2,36.122l-3.955.586L-95.5,33.632-99.161,35.1l-3.076-2.344-3.076,2.344-3.662-1.465-2.344,3.223-3.955-.586-1.465,3.662-3.955.586-.439,3.808-3.662,1.611.586,3.808-3.076,2.49,1.465,3.515-2.344,3.223,2.344,3.076-1.465,3.662,3.223,2.344-.586,3.808,3.662,1.611.586,3.808,3.808.439,1.611,3.662,3.808-.586,2.49,3.223,3.515-1.611,3.223,2.344,3.076-2.344,3.662,1.465,2.344-3.076,3.808.439,1.611-3.662,3.808-.439.439-3.955,3.662-1.465-.586-3.955,3.223-2.344Z" transform="translate(128.164 -32.753)" fill="#ee3335"/>
</svg>
